<svg width="294" height="112" viewBox="0 0 294 112" fill="none" xmlns="http://www.w3.org/2000/svg">
<path d="M136.704 48.458L107.094 107.68L147.365 47.274L110.647 4.63403L136.704 48.458Z" fill="#004F62"/>
<path d="M142.626 57.933L149.733 48.458L179.344 81.622H158.026L142.626 57.933Z" fill="#EB1D25"/>
<path d="M142.626 38.98L162.761 1.07996H179.344L149.733 44.904L142.626 38.98Z" fill="#969896"/>
<path d="M81.036 81.621L92.88 55.564H103.536L108.274 67.408L114.2 55.564H123.676L111.831 81.621H102.356L105.909 74.514L99.987 62.671L91.695 81.621H81.036Z" fill="#969896"/>
<mask id="mask0_59_112" style="mask-type:luminance" maskUnits="userSpaceOnUse" x="0" y="0" width="83" height="98">
<path d="M0 0H82.877V97.762H0V0Z" fill="white"/>
</mask>
<g mask="url(#mask0_59_112)">
<path d="M72.745 27.138C78.667 16.479 68.978 5.66097 61.81 2.64697C41.028 -6.09403 15.475 7.52097 4.73599 33.056C-6.00301 58.591 2.13599 86.374 22.918 95.116C43.7 103.858 69.252 90.241 79.991 64.707C81.1603 61.9316 82.1245 59.0743 82.876 56.158H70.117C69.9363 56.6206 69.7487 57.083 69.554 57.545C60.531 79 40.752 91.146 25.376 84.68C9.99999 78.214 4.84999 55.58 13.876 34.125C22.902 12.67 42.676 0.520975 58.052 6.98797C65.78 10.239 70.925 17.573 72.985 26.788L72.745 27.138Z" fill="#969896"/>
</g>
<path d="M83.997 41.351C83.9972 43.4594 83.3722 45.5205 82.201 47.2737C81.0297 49.0268 79.3649 50.3933 77.4171 51.2003C75.4693 52.0073 73.3259 52.2185 71.258 51.8073C69.1901 51.3961 67.2905 50.3809 65.7996 48.8901C64.3087 47.3993 63.2933 45.4999 62.8819 43.432C62.4705 41.3642 62.6816 39.2208 63.4884 37.2728C64.2952 35.3249 65.6615 33.66 67.4145 32.4886C69.1676 31.3172 71.2286 30.692 73.337 30.692C76.164 30.692 78.8753 31.815 80.8744 33.8139C82.8735 35.8128 83.9967 38.524 83.997 41.351Z" fill="#EB1D25"/>
<path d="M140.327 107.325C139.221 107.325 138.192 107.143 137.24 106.779C136.302 106.401 135.483 105.876 134.783 105.204C134.097 104.518 133.558 103.727 133.166 102.831C132.788 101.921 132.599 100.927 132.599 99.8489C132.599 98.7709 132.788 97.7839 133.166 96.8879C133.558 95.9779 134.097 95.1869 134.783 94.5149C135.483 93.8289 136.302 93.3039 137.24 92.9399C138.178 92.5619 139.207 92.3729 140.327 92.3729C141.433 92.3729 142.455 92.5619 143.393 92.9399C144.331 93.3039 145.143 93.8219 145.829 94.4939C146.529 95.1659 147.068 95.9569 147.446 96.8669C147.838 97.7769 148.034 98.7709 148.034 99.8489C148.034 100.927 147.838 101.921 147.446 102.831C147.068 103.741 146.529 104.532 145.829 105.204C145.143 105.876 144.331 106.401 143.393 106.779C142.455 107.143 141.433 107.325 140.327 107.325ZM140.327 105.939C141.209 105.939 142.021 105.792 142.763 105.498C143.519 105.19 144.17 104.763 144.716 104.217C145.276 103.657 145.71 103.013 146.018 102.285C146.326 101.543 146.48 100.731 146.48 99.8489C146.48 98.9669 146.326 98.1619 146.018 97.4339C145.71 96.6919 145.276 96.0479 144.716 95.5019C144.17 94.9419 143.519 94.5149 142.763 94.2209C142.021 93.9129 141.209 93.7589 140.327 93.7589C139.445 93.7589 138.626 93.9129 137.87 94.2209C137.114 94.5149 136.456 94.9419 135.896 95.5019C135.35 96.0479 134.916 96.6919 134.594 97.4339C134.286 98.1619 134.132 98.9669 134.132 99.8489C134.132 100.717 134.286 101.522 134.594 102.264C134.916 103.006 135.35 103.657 135.896 104.217C136.456 104.763 137.114 105.19 137.87 105.498C138.626 105.792 139.445 105.939 140.327 105.939Z" fill="#969896"/>
<path d="M151.202 107.199V96.1739H152.63V99.1769L152.483 98.6519C152.791 97.8119 153.309 97.1749 154.037 96.7409C154.765 96.2929 155.668 96.0689 156.746 96.0689V97.5179C156.69 97.5179 156.634 97.5179 156.578 97.5179C156.522 97.5039 156.466 97.4969 156.41 97.4969C155.248 97.4969 154.338 97.8539 153.68 98.5679C153.022 99.2679 152.693 100.269 152.693 101.571V107.199H151.202Z" fill="#969896"/>
<path d="M163.753 107.304C162.703 107.304 161.758 107.066 160.918 106.59C160.092 106.114 159.441 105.456 158.965 104.616C158.489 103.762 158.251 102.782 158.251 101.676C158.251 100.556 158.489 99.5759 158.965 98.7359C159.441 97.8959 160.092 97.2449 160.918 96.7829C161.758 96.3069 162.703 96.0689 163.753 96.0689C164.719 96.0689 165.58 96.2859 166.336 96.7199C167.106 97.1539 167.715 97.7909 168.163 98.6309C168.625 99.4569 168.856 100.472 168.856 101.676C168.856 102.866 168.632 103.881 168.184 104.721C167.736 105.561 167.127 106.205 166.357 106.653C165.601 107.087 164.733 107.304 163.753 107.304ZM163.858 105.981C164.642 105.981 165.342 105.806 165.958 105.456C166.588 105.092 167.078 104.588 167.428 103.944C167.792 103.286 167.974 102.53 167.974 101.676C167.974 100.808 167.792 100.052 167.428 99.4079C167.078 98.7639 166.588 98.2669 165.958 97.9169C165.342 97.5529 164.642 97.3709 163.858 97.3709C163.088 97.3709 162.395 97.5529 161.779 97.9169C161.163 98.2669 160.673 98.7639 160.309 99.4079C159.945 100.052 159.763 100.808 159.763 101.676C159.763 102.53 159.945 103.286 160.309 103.944C160.673 104.588 161.163 105.092 161.779 105.456C162.395 105.806 163.088 105.981 163.858 105.981ZM168.016 107.199V103.881L168.163 101.655L167.953 99.4289V91.6169H169.444V107.199H168.016Z" fill="#969896"/>
<path d="M178.28 107.304C177.132 107.304 176.124 107.066 175.256 106.59C174.388 106.1 173.709 105.435 173.219 104.595C172.729 103.741 172.484 102.768 172.484 101.676C172.484 100.584 172.715 99.6179 173.177 98.7779C173.653 97.9379 174.297 97.2799 175.109 96.8039C175.935 96.3139 176.859 96.0689 177.881 96.0689C178.917 96.0689 179.834 96.3069 180.632 96.7829C181.444 97.2449 182.081 97.9029 182.543 98.7569C183.005 99.5969 183.236 100.57 183.236 101.676C183.236 101.746 183.229 101.823 183.215 101.907C183.215 101.977 183.215 102.054 183.215 102.138H173.618V101.025H182.417L181.829 101.466C181.829 100.668 181.654 99.9609 181.304 99.3449C180.968 98.7149 180.506 98.2249 179.918 97.8749C179.33 97.5249 178.651 97.3499 177.881 97.3499C177.125 97.3499 176.446 97.5249 175.844 97.8749C175.242 98.2249 174.773 98.7149 174.437 99.3449C174.101 99.9749 173.933 100.696 173.933 101.508V101.739C173.933 102.579 174.115 103.321 174.479 103.965C174.857 104.595 175.375 105.092 176.033 105.456C176.705 105.806 177.468 105.981 178.322 105.981C178.994 105.981 179.617 105.862 180.191 105.624C180.779 105.386 181.283 105.022 181.703 104.532L182.543 105.498C182.053 106.086 181.437 106.534 180.695 106.842C179.967 107.15 179.162 107.304 178.28 107.304Z" fill="#969896"/>
<path d="M186.271 107.199V96.1739H187.699V99.1769L187.552 98.6519C187.86 97.8119 188.378 97.1749 189.106 96.7409C189.834 96.2929 190.737 96.0689 191.815 96.0689V97.5179C191.759 97.5179 191.703 97.5179 191.647 97.5179C191.591 97.5039 191.535 97.4969 191.479 97.4969C190.317 97.4969 189.407 97.8539 188.749 98.5679C188.091 99.2679 187.762 100.269 187.762 101.571V107.199H186.271Z" fill="#969896"/>
<path d="M197.619 107.304C196.709 107.304 195.848 107.178 195.036 106.926C194.224 106.66 193.587 106.331 193.125 105.939L193.797 104.763C194.245 105.099 194.819 105.393 195.519 105.645C196.219 105.883 196.954 106.002 197.724 106.002C198.774 106.002 199.53 105.841 199.992 105.519C200.454 105.183 200.685 104.742 200.685 104.196C200.685 103.79 200.552 103.475 200.286 103.251C200.034 103.013 199.698 102.838 199.278 102.726C198.858 102.6 198.389 102.495 197.871 102.411C197.353 102.327 196.835 102.229 196.317 102.117C195.813 102.005 195.351 101.844 194.931 101.634C194.511 101.41 194.168 101.109 193.902 100.731C193.65 100.353 193.524 99.8489 193.524 99.2189C193.524 98.6169 193.692 98.0779 194.028 97.6019C194.364 97.1259 194.854 96.7549 195.498 96.4889C196.156 96.2089 196.954 96.0689 197.892 96.0689C198.606 96.0689 199.32 96.1669 200.034 96.3629C200.748 96.5449 201.336 96.7899 201.798 97.0979L201.147 98.2949C200.657 97.9589 200.132 97.7209 199.572 97.5809C199.012 97.4269 198.452 97.3499 197.892 97.3499C196.898 97.3499 196.163 97.5249 195.687 97.8749C195.225 98.2109 194.994 98.6449 194.994 99.1769C194.994 99.5969 195.12 99.9259 195.372 100.164C195.638 100.402 195.981 100.591 196.401 100.731C196.835 100.857 197.304 100.962 197.808 101.046C198.326 101.13 198.837 101.235 199.341 101.361C199.859 101.473 200.328 101.634 200.748 101.844C201.182 102.04 201.525 102.327 201.777 102.705C202.043 103.069 202.176 103.552 202.176 104.154C202.176 104.798 201.994 105.358 201.63 105.834C201.28 106.296 200.762 106.66 200.076 106.926C199.404 107.178 198.585 107.304 197.619 107.304Z" fill="#969896"/>
<path d="M210.723 107.199V92.4989H216.708C218.276 92.4989 219.648 92.8139 220.824 93.4439C222.014 94.0599 222.938 94.9209 223.596 96.0269C224.254 97.1329 224.583 98.4069 224.583 99.8489C224.583 101.291 224.254 102.565 223.596 103.671C222.938 104.777 222.014 105.645 220.824 106.275C219.648 106.891 218.276 107.199 216.708 107.199H210.723ZM212.277 105.855H216.624C217.926 105.855 219.053 105.603 220.005 105.099C220.971 104.581 221.72 103.874 222.252 102.978C222.784 102.068 223.05 101.025 223.05 99.8489C223.05 98.6589 222.784 97.6159 222.252 96.7199C221.72 95.8239 220.971 95.1239 220.005 94.6199C219.053 94.1019 217.926 93.8429 216.624 93.8429H212.277V105.855Z" fill="#969896"/>
<path d="M232.441 107.304C231.293 107.304 230.285 107.066 229.417 106.59C228.549 106.1 227.87 105.435 227.38 104.595C226.89 103.741 226.645 102.768 226.645 101.676C226.645 100.584 226.876 99.6179 227.338 98.7779C227.814 97.9379 228.458 97.2799 229.27 96.8039C230.096 96.3139 231.02 96.0689 232.042 96.0689C233.078 96.0689 233.995 96.3069 234.793 96.7829C235.605 97.2449 236.242 97.9029 236.704 98.7569C237.166 99.5969 237.397 100.57 237.397 101.676C237.397 101.746 237.39 101.823 237.376 101.907C237.376 101.977 237.376 102.054 237.376 102.138H227.779V101.025H236.578L235.99 101.466C235.99 100.668 235.815 99.9609 235.465 99.3449C235.129 98.7149 234.667 98.2249 234.079 97.8749C233.491 97.5249 232.812 97.3499 232.042 97.3499C231.286 97.3499 230.607 97.5249 230.005 97.8749C229.403 98.2249 228.934 98.7149 228.598 99.3449C228.262 99.9749 228.094 100.696 228.094 101.508V101.739C228.094 102.579 228.276 103.321 228.64 103.965C229.018 104.595 229.536 105.092 230.194 105.456C230.866 105.806 231.629 105.981 232.483 105.981C233.155 105.981 233.778 105.862 234.352 105.624C234.94 105.386 235.444 105.022 235.864 104.532L236.704 105.498C236.214 106.086 235.598 106.534 234.856 106.842C234.128 107.15 233.323 107.304 232.441 107.304Z" fill="#969896"/>
<path d="M240.432 107.199V91.6169H241.923V107.199H240.432Z" fill="#969896"/>
<path d="M246.071 107.199V96.1739H247.562V107.199H246.071ZM246.827 93.7379C246.519 93.7379 246.26 93.6329 246.05 93.4229C245.84 93.2129 245.735 92.9609 245.735 92.6669C245.735 92.3729 245.84 92.1279 246.05 91.9319C246.26 91.7219 246.519 91.6169 246.827 91.6169C247.135 91.6169 247.394 91.7149 247.604 91.9109C247.814 92.1069 247.919 92.3519 247.919 92.6459C247.919 92.9539 247.814 93.2129 247.604 93.4229C247.408 93.6329 247.149 93.7379 246.827 93.7379Z" fill="#969896"/>
<path d="M254.546 107.199L249.653 96.1739H251.207L255.701 106.401H254.966L259.523 96.1739H260.993L256.079 107.199H254.546Z" fill="#969896"/>
<path d="M267.468 107.304C266.32 107.304 265.312 107.066 264.444 106.59C263.576 106.1 262.897 105.435 262.407 104.595C261.917 103.741 261.672 102.768 261.672 101.676C261.672 100.584 261.903 99.6179 262.365 98.7779C262.841 97.9379 263.485 97.2799 264.297 96.8039C265.123 96.3139 266.047 96.0689 267.069 96.0689C268.105 96.0689 269.022 96.3069 269.82 96.7829C270.632 97.2449 271.269 97.9029 271.731 98.7569C272.193 99.5969 272.424 100.57 272.424 101.676C272.424 101.746 272.417 101.823 272.403 101.907C272.403 101.977 272.403 102.054 272.403 102.138H262.806V101.025H271.605L271.017 101.466C271.017 100.668 270.842 99.9609 270.492 99.3449C270.156 98.7149 269.694 98.2249 269.106 97.8749C268.518 97.5249 267.839 97.3499 267.069 97.3499C266.313 97.3499 265.634 97.5249 265.032 97.8749C264.43 98.2249 263.961 98.7149 263.625 99.3449C263.289 99.9749 263.121 100.696 263.121 101.508V101.739C263.121 102.579 263.303 103.321 263.667 103.965C264.045 104.595 264.563 105.092 265.221 105.456C265.893 105.806 266.656 105.981 267.51 105.981C268.182 105.981 268.805 105.862 269.379 105.624C269.967 105.386 270.471 105.022 270.891 104.532L271.731 105.498C271.241 106.086 270.625 106.534 269.883 106.842C269.155 107.15 268.35 107.304 267.468 107.304Z" fill="#969896"/>
<path d="M275.459 107.199V96.1739H276.887V99.1769L276.74 98.6519C277.048 97.8119 277.566 97.1749 278.294 96.7409C279.022 96.2929 279.925 96.0689 281.003 96.0689V97.5179C280.947 97.5179 280.891 97.5179 280.835 97.5179C280.779 97.5039 280.723 97.4969 280.667 97.4969C279.505 97.4969 278.595 97.8539 277.937 98.5679C277.279 99.2679 276.95 100.269 276.95 101.571V107.199H275.459Z" fill="#969896"/>
<path d="M284.279 111.378C283.761 111.378 283.264 111.294 282.788 111.126C282.326 110.958 281.927 110.706 281.591 110.37L282.284 109.257C282.564 109.523 282.865 109.726 283.187 109.866C283.523 110.02 283.894 110.097 284.3 110.097C284.79 110.097 285.21 109.957 285.56 109.677C285.924 109.411 286.267 108.935 286.589 108.249L287.303 106.632L287.471 106.401L292.007 96.1739H293.477L287.954 108.522C287.646 109.236 287.303 109.803 286.925 110.223C286.561 110.643 286.162 110.937 285.728 111.105C285.294 111.287 284.811 111.378 284.279 111.378ZM287.219 107.514L282.137 96.1739H283.691L288.185 106.296L287.219 107.514Z" fill="#969896"/>
</svg>
