<svg width="16" height="32" viewBox="0 0 16 32" fill="none" xmlns="http://www.w3.org/2000/svg">
<path d="M1.3911 32C1.03751 32 0.68392 31.8708 0.404769 31.5939C-0.134923 31.0587 -0.134923 30.1727 0.404769 29.6375L12.5385 17.6035C13.4318 16.7175 13.4318 15.2779 12.5385 14.3919L0.404769 2.3579C-0.134923 1.82264 -0.134923 0.936698 0.404769 0.401442C0.944461 -0.133814 1.83774 -0.133814 2.37743 0.401442L14.5112 12.4355C15.4603 13.3768 16 14.6503 16 15.9977C16 17.3451 15.4789 18.6186 14.5112 19.5599L2.37743 31.5939C2.09828 31.8523 1.74469 32 1.3911 32Z" fill="white"/>
</svg>
